<svg viewBox="0 0 2000 1000" xmlns="http://www.w3.org/2000/svg"><mask id="b" x="0" y="0" width="2000" height="1000"><path fill="url(#a)" d="M0 0h2000v1000H0z"/></mask><g style="transform-origin:center center" stroke="#4c4e72" stroke-width=".8" fill="none" mask="url(#b)"><path d="M0 0h129.8v129.8H0zM129.8 0h129.8v129.8H129.8zM259.6 0h129.8v129.8H259.6z" stroke-width=".8800000000000001"/><path d="M389.4 0h129.8v129.8H389.4zM519.2 0H649v129.8H519.2zM649 0h129.8v129.8H649zM778.8 0h129.8v129.8H778.8zM908.6 0h129.8v129.8H908.6zM1038.4 0h129.8v129.8h-129.8zM1168.2 0H1298v129.8h-129.8zM1298 0h129.8v129.8H1298zM1427.8 0h129.8v129.8h-129.8zM1557.6 0h129.8v129.8h-129.8zM1687.4 0h129.8v129.8h-129.8zM1817.2 0H1947v129.8h-129.8zM1947 0h129.8v129.8H1947zM2076.8 0h129.8v129.8h-129.8zM0 129.8h129.8v129.8H0zM129.8 129.8h129.8v129.8H129.8zM259.6 129.8h129.8v129.8H259.6z" stroke-width=".8800000000000001"/><path d="M389.4 129.8h129.8v129.8H389.4zM519.2 129.8H649v129.8H519.2zM649 129.8h129.8v129.8H649zM778.8 129.8h129.8v129.8H778.8zM908.6 129.8h129.8v129.8H908.6zM1038.4 129.8h129.8v129.8h-129.8zM1168.2 129.8H1298v129.8h-129.8zM1298 129.8h129.8v129.8H1298zM1427.8 129.8h129.8v129.8h-129.8zM1557.6 129.8h129.8v129.8h-129.8zM1687.4 129.8h129.8v129.8h-129.8zM1817.2 129.8H1947v129.8h-129.8zM1947 129.8h129.8v129.8H1947zM2076.8 129.8h129.8v129.8h-129.8zM0 259.6h129.8v129.8H0zM129.8 259.6h129.8v129.8H129.8zM259.6 259.6h129.8v129.8H259.6z" stroke-width=".8800000000000001"/><path d="M389.4 259.6h129.8v129.8H389.4zM519.2 259.6H649v129.8H519.2zM649 259.6h129.8v129.8H649zM778.8 259.6h129.8v129.8H778.8zM908.6 259.6h129.8v129.8H908.6zM1038.4 259.6h129.8v129.8h-129.8zM1168.2 259.6H1298v129.8h-129.8zM1298 259.6h129.8v129.8H1298zM1427.8 259.6h129.8v129.8h-129.8zM1557.6 259.6h129.8v129.8h-129.8zM1687.4 259.6h129.8v129.8h-129.8zM1817.2 259.6H1947v129.8h-129.8zM1947 259.6h129.8v129.8H1947zM2076.8 259.6h129.8v129.8h-129.8zM0 389.4h129.8v129.8H0zM129.8 389.4h129.8v129.8H129.8z" stroke-width=".8800000000000001"/><path d="M259.6 389.4h129.8v129.8H259.6z" stroke-width=".8800000000000001"/><path d="M389.4 389.4h129.8v129.8H389.4zM519.2 389.4H649v129.8H519.2zM649 389.4h129.8v129.8H649zM778.8 389.4h129.8v129.8H778.8zM908.6 389.4h129.8v129.8H908.6zM1038.4 389.4h129.8v129.8h-129.8zM1168.2 389.4H1298v129.8h-129.8zM1298 389.4h129.8v129.8H1298zM1427.8 389.4h129.8v129.8h-129.8zM1557.6 389.4h129.8v129.8h-129.8zM1687.4 389.4h129.8v129.8h-129.8zM1817.2 389.4H1947v129.8h-129.8zM1947 389.4h129.8v129.8H1947zM2076.8 389.4h129.8v129.8h-129.8zM0 519.2h129.8V649H0zM129.8 519.2h129.8V649H129.8zM259.6 519.2h129.8V649H259.6z" stroke-width=".8800000000000001"/><path d="M389.4 519.2h129.8V649H389.4zM519.2 519.2H649V649H519.2zM649 519.2h129.8V649H649zM778.8 519.2h129.8V649H778.8zM908.6 519.2h129.8V649H908.6zM1038.4 519.2h129.8V649h-129.8zM1168.2 519.2H1298V649h-129.8zM1298 519.2h129.8V649H1298zM1427.8 519.2h129.8V649h-129.8zM1557.6 519.2h129.8V649h-129.8zM1687.4 519.2h129.8V649h-129.8zM1817.2 519.2H1947V649h-129.8zM1947 519.2h129.8V649H1947zM2076.8 519.2h129.8V649h-129.8zM0 649h129.8v129.8H0zM129.8 649h129.8v129.8H129.8zM259.6 649h129.8v129.8H259.6z" stroke-width=".8800000000000001"/><path d="M389.4 649h129.8v129.8H389.4zM519.2 649H649v129.8H519.2zM649 649h129.8v129.8H649zM778.8 649h129.8v129.8H778.8zM908.6 649h129.8v129.8H908.6zM1038.4 649h129.8v129.8h-129.8zM1168.2 649H1298v129.8h-129.8zM1298 649h129.8v129.8H1298zM1427.8 649h129.8v129.8h-129.8zM1557.6 649h129.8v129.8h-129.8zM1687.4 649h129.8v129.8h-129.8zM1817.2 649H1947v129.8h-129.8zM1947 649h129.8v129.8H1947zM2076.8 649h129.8v129.8h-129.8zM0 778.8h129.8v129.8H0zM129.8 778.8h129.8v129.8H129.8zM259.6 778.8h129.8v129.8H259.6z" stroke-width=".8800000000000001"/><path d="M389.4 778.8h129.8v129.8H389.4zM519.2 778.8H649v129.8H519.2zM649 778.8h129.8v129.8H649zM778.8 778.8h129.8v129.8H778.8zM908.6 778.8h129.8v129.8H908.6zM1038.4 778.8h129.8v129.8h-129.8zM1168.2 778.8H1298v129.8h-129.8zM1298 778.8h129.8v129.8H1298zM1427.8 778.8h129.8v129.8h-129.8zM1557.6 778.8h129.8v129.8h-129.8zM1687.4 778.8h129.8v129.8h-129.8zM1817.2 778.8H1947v129.8h-129.8zM1947 778.8h129.8v129.8H1947zM2076.8 778.8h129.8v129.8h-129.8zM0 908.6h129.8v129.8H0zM129.8 908.6h129.8v129.8H129.8zM259.6 908.6h129.8v129.8H259.6z" stroke-width=".8800000000000001"/><path d="M389.4 908.6h129.8v129.8H389.4zM519.2 908.6H649v129.8H519.2zM649 908.6h129.8v129.8H649zM778.8 908.6h129.8v129.8H778.8zM908.6 908.6h129.8v129.8H908.6zM1038.4 908.6h129.8v129.8h-129.8zM1168.2 908.6H1298v129.8h-129.8zM1298 908.6h129.8v129.8H1298zM1427.8 908.6h129.8v129.8h-129.8zM1557.6 908.6h129.8v129.8h-129.8zM1687.4 908.6h129.8v129.8h-129.8zM1817.2 908.6H1947v129.8h-129.8zM1947 908.6h129.8v129.8H1947zM2076.8 908.6h129.8v129.8h-129.8zM0 1038.4h129.8v129.8H0zM129.8 1038.4h129.8v129.8H129.8zM259.6 1038.4h129.8v129.8H259.6z" stroke-width=".8800000000000001"/><path d="M389.4 1038.4h129.8v129.8H389.4zM519.2 1038.4H649v129.8H519.2zM649 1038.4h129.8v129.8H649zM778.8 1038.4h129.8v129.8H778.8zM908.6 1038.4h129.8v129.8H908.6zM1038.4 1038.4h129.8v129.8h-129.8zM1168.2 1038.4H1298v129.8h-129.8zM1298 1038.4h129.8v129.8H1298zM1427.8 1038.4h129.8v129.8h-129.8zM1557.6 1038.4h129.8v129.8h-129.8zM1687.4 1038.4h129.8v129.8h-129.8zM1817.2 1038.4H1947v129.8h-129.8zM1947 1038.4h129.8v129.8H1947zM2076.8 1038.4h129.8v129.8h-129.8z" stroke-width=".8800000000000001"/></g><defs><radialGradient id="a"><stop offset="0" stop-color="#fff"/><stop offset="1" stop-color="#fff" stop-opacity="0"/></radialGradient></defs></svg>