<svg viewBox="0 0 2000 1125" xmlns="http://www.w3.org/2000/svg"><mask id="b" x="0" y="0" width="2000" height="1125"><path fill="url(#a)" d="M0 0h2000v1125H0z"/></mask><g style="transform-origin:center center" stroke="#304a70" mask="url(#b)"><path fill="none" d="M0 0h111v111H0zM111 0h111v111H111zM222 0h111v111H222zM333 0h111v111H333z"/><path fill="#304a70fd" d="M444 0h111v111H444z"/><path fill="none" d="M555 0h111v111H555z"/><path fill="#304a70dd" d="M666 0h111v111H666z"/><path fill="none" d="M777 0h111v111H777zM888 0h111v111H888z"/><path fill="#304a70c5" d="M999 0h111v111H999z"/><path fill="#304a708e" d="M1110 0h111v111h-111z"/><path fill="none" d="M1221 0h111v111h-111zM1332 0h111v111h-111zM1443 0h111v111h-111z"/><path fill="#304a7068" d="M1554 0h111v111h-111z"/><path fill="#304a702a" d="M1665 0h111v111h-111z"/><path fill="#304a7011" d="M1776 0h111v111h-111z"/><path fill="none" d="M1887 0h111v111h-111z"/><path fill="#304a7083" d="M0 111h111v111H0z"/><path fill="#304a7092" d="M111 111h111v111H111z"/><path fill="#304a7086" d="M222 111h111v111H222z"/><path fill="none" d="M333 111h111v111H333zM444 111h111v111H444z"/><path fill="#304a70cd" d="M555 111h111v111H555z"/><path fill="none" d="M666 111h111v111H666z"/><path fill="#304a7057" d="M777 111h111v111H777z"/><path fill="none" d="M888 111h111v111H888zM999 111h111v111H999zM1110 111h111v111h-111zM1221 111h111v111h-111zM1332 111h111v111h-111zM1443 111h111v111h-111z"/><path fill="#304a701d" d="M1554 111h111v111h-111z"/><path fill="none" d="M1665 111h111v111h-111zM1776 111h111v111h-111zM1887 111h111v111h-111zM0 222h111v111H0zM111 222h111v111H111zM222 222h111v111H222zM333 222h111v111H333zM444 222h111v111H444zM555 222h111v111H555zM666 222h111v111H666zM777 222h111v111H777zM888 222h111v111H888zM999 222h111v111H999zM1110 222h111v111h-111z"/><path fill="#304a70f4" d="M1221 222h111v111h-111z"/><path fill="none" d="M1332 222h111v111h-111z"/><path fill="#304a709f" d="M1443 222h111v111h-111z"/><path fill="#304a70d7" d="M1554 222h111v111h-111z"/><path fill="none" d="M1665 222h111v111h-111z"/><path fill="#304a70c9" d="M1776 222h111v111h-111z"/><path fill="#304a70fd" d="M1887 222h111v111h-111z"/><path fill="#304a707c" d="M0 333h111v111H0z"/><path fill="none" d="M111 333h111v111H111zM222 333h111v111H222z"/><path fill="#304a70f9" d="M333 333h111v111H333z"/><path fill="#304a70f6" d="M444 333h111v111H444z"/><path fill="#304a70c5" d="M555 333h111v111H555z"/><path fill="none" d="M666 333h111v111H666zM777 333h111v111H777zM888 333h111v111H888zM999 333h111v111H999zM1110 333h111v111h-111z"/><path fill="#304a703c" d="M1221 333h111v111h-111z"/><path fill="none" d="M1332 333h111v111h-111z"/><path fill="#304a705b" d="M1443 333h111v111h-111z"/><path fill="#304a703c" d="M1554 333h111v111h-111z"/><path fill="none" d="M1665 333h111v111h-111z"/><path fill="#304a70d3" d="M1776 333h111v111h-111z"/><path fill="none" d="M1887 333h111v111h-111zM0 444h111v111H0zM111 444h111v111H111zM222 444h111v111H222zM333 444h111v111H333zM444 444h111v111H444zM555 444h111v111H555z"/><path fill="#304a70a4" d="M666 444h111v111H666z"/><path fill="none" d="M777 444h111v111H777zM888 444h111v111H888zM999 444h111v111H999z"/><path fill="#304a70bb" d="M1110 444h111v111h-111z"/><path fill="#304a70fe" d="M1221 444h111v111h-111z"/><path fill="none" d="M1332 444h111v111h-111z"/><path fill="#304a702b" d="M1443 444h111v111h-111z"/><path fill="#304a702d" d="M1554 444h111v111h-111z"/><path fill="#304a704d" d="M1665 444h111v111h-111z"/><path fill="#304a7054" d="M1776 444h111v111h-111z"/><path fill="#304a70da" d="M1887 444h111v111h-111z"/><path fill="none" d="M0 555h111v111H0z"/><path fill="#304a7019" d="M111 555h111v111H111z"/><path fill="none" d="M222 555h111v111H222zM333 555h111v111H333zM444 555h111v111H444zM555 555h111v111H555zM666 555h111v111H666zM777 555h111v111H777zM888 555h111v111H888zM999 555h111v111H999zM1110 555h111v111h-111z"/><path fill="#304a70fd" d="M1221 555h111v111h-111z"/><path fill="#304a7032" d="M1332 555h111v111h-111z"/><path fill="none" d="M1443 555h111v111h-111zM1554 555h111v111h-111zM1665 555h111v111h-111zM1776 555h111v111h-111zM1887 555h111v111h-111z"/><path fill="#304a70f3" d="M0 666h111v111H0z"/><path fill="none" d="M111 666h111v111H111z"/><path fill="#304a709d" d="M222 666h111v111H222z"/><path fill="#304a706f" d="M333 666h111v111H333z"/><path fill="none" d="M444 666h111v111H444zM555 666h111v111H555z"/><path fill="#304a7090" d="M666 666h111v111H666z"/><path fill="none" d="M777 666h111v111H777zM888 666h111v111H888z"/><path fill="#304a709e" d="M999 666h111v111H999z"/><path fill="none" d="M1110 666h111v111h-111zM1221 666h111v111h-111zM1332 666h111v111h-111z"/><path fill="#304a70f7" d="M1443 666h111v111h-111z"/><path fill="#304a701d" d="M1554 666h111v111h-111z"/><path fill="#304a7049" d="M1665 666h111v111h-111z"/><path fill="none" d="M1776 666h111v111h-111zM1887 666h111v111h-111zM0 777h111v111H0zM111 777h111v111H111zM222 777h111v111H222zM333 777h111v111H333zM444 777h111v111H444zM555 777h111v111H555zM666 777h111v111H666zM777 777h111v111H777z"/><path fill="#304a70b7" d="M888 777h111v111H888z"/><path fill="none" d="M999 777h111v111H999zM1110 777h111v111h-111zM1221 777h111v111h-111zM1332 777h111v111h-111zM1443 777h111v111h-111zM1554 777h111v111h-111zM1665 777h111v111h-111zM1776 777h111v111h-111zM1887 777h111v111h-111z"/><path fill="#304a7016" d="M0 888h111v111H0z"/><path fill="none" d="M111 888h111v111H111zM222 888h111v111H222zM333 888h111v111H333zM444 888h111v111H444z"/><path fill="#304a7086" d="M555 888h111v111H555z"/><path fill="#304a7055" d="M666 888h111v111H666z"/><path fill="#304a7003" d="M777 888h111v111H777z"/><path fill="none" d="M888 888h111v111H888zM999 888h111v111H999z"/><path fill="#304a70af" d="M1110 888h111v111h-111z"/><path fill="none" d="M1221 888h111v111h-111zM1332 888h111v111h-111z"/><path fill="#304a70cb" d="M1443 888h111v111h-111z"/><path fill="#304a7022" d="M1554 888h111v111h-111z"/><path fill="none" d="M1665 888h111v111h-111zM1776 888h111v111h-111zM1887 888h111v111h-111zM0 999h111v111H0z"/><path fill="#304a707a" d="M111 999h111v111H111z"/><path fill="#304a7048" d="M222 999h111v111H222z"/><path fill="#304a7041" d="M333 999h111v111H333z"/><path fill="none" d="M444 999h111v111H444zM555 999h111v111H555zM666 999h111v111H666z"/><path fill="#304a7089" d="M777 999h111v111H777z"/><path fill="none" d="M888 999h111v111H888zM999 999h111v111H999zM1110 999h111v111h-111z"/><path fill="#304a701e" d="M1221 999h111v111h-111z"/><path fill="#304a7045" d="M1332 999h111v111h-111z"/><path fill="#304a708a" d="M1443 999h111v111h-111z"/><path fill="#304a703b" d="M1554 999h111v111h-111z"/><path fill="#304a7019" d="M1665 999h111v111h-111z"/><path fill="none" d="M1776 999h111v111h-111z"/><path fill="#304a7045" d="M1887 999h111v111h-111z"/><path fill="none" d="M0 1110h111v111H0zM111 1110h111v111H111zM222 1110h111v111H222zM333 1110h111v111H333zM444 1110h111v111H444zM555 1110h111v111H555z"/><path fill="#304a70e0" d="M666 1110h111v111H666z"/><path fill="none" d="M777 1110h111v111H777zM888 1110h111v111H888z"/><path fill="#304a705c" d="M999 1110h111v111H999z"/><path fill="#304a70d9" d="M1110 1110h111v111h-111z"/><path fill="none" d="M1221 1110h111v111h-111zM1332 1110h111v111h-111z"/><path fill="#304a70ab" d="M1443 1110h111v111h-111z"/><path fill="none" d="M1554 1110h111v111h-111z"/><path fill="#304a7057" d="M1665 1110h111v111h-111z"/><path fill="#304a702d" d="M1776 1110h111v111h-111z"/><path fill="none" d="M1887 1110h111v111h-111z"/></g><defs><radialGradient id="a"><stop offset="0" stop-color="#fff"/><stop offset="1" stop-color="#fff" stop-opacity="0"/></radialGradient></defs></svg>