<svg
  id="Layer_1"
  xmlns="http://www.w3.org/2000/svg"
  viewBox="0 0 625.71 150"
>
  <g>
    <polygon
      points="103.92 109.99 69.29 109.99 75.06 100 80.84 89.99 86.61 80 92.38 89.99 98.16 100 103.92 109.99"
      fill="#fff"
    />
    <polygon
      points="173.21 150 0 150 5.78 140.01 5.78 140 11.55 130 17.33 120 23.1 109.99 28.88 100 34.64 89.99 40.43 80 40.43 80 46.19 70 51.97 60 57.75 50 63.51 40 69.29 30 75.06 20 86.61 0 98.16 20 92.38 30 86.61 40 80.84 50 75.06 60.01 69.29 70 63.52 80 57.75 89.99 51.97 100 46.19 109.99 40.43 120 34.64 130 138.57 130 132.8 120 127.02 109.99 121.25 100 121.25 99.99 115.47 89.99 109.71 80 103.92 70 98.16 60.01 103.93 50 109.71 40 115.47 50 121.25 60.01 127.02 70 132.8 80 138.57 89.99 144.35 99.99 144.35 100 150.12 109.99 155.89 120 161.67 130 167.44 140 173.21 150"
      fill="#fff"
    />
  </g>
  <g>
    <path
      d="m189.04,111.44V39.41h19.55v28.14h25.88v-28.14h19.55v72.03h-19.55v-28.14h-25.88v28.14h-19.55Z"
      fill="#fff"
    />
    <path
      d="m305.94,39.41h19.55v46.14c0,5.49-1.31,10.23-3.92,14.22-2.61,4-6.26,7.08-10.92,9.25-4.66,2.17-10.08,3.25-16.25,3.25s-11.65-1.09-16.31-3.25-8.3-5.25-10.88-9.25-3.89-8.74-3.89-14.22v-46.14h19.55v44.45c0,2.23.49,4.22,1.48,5.96s2.35,3.11,4.1,4.1c1.75.99,3.74,1.48,5.96,1.48s4.24-.49,5.98-1.48,3.09-2.35,4.08-4.1,1.48-3.74,1.48-5.96v-44.45h0Z"
      fill="#fff"
    />
    <path
      d="m377.4,39.41h19.55v46.14c0,5.49-1.31,10.23-3.92,14.22-2.61,4-6.26,7.08-10.92,9.25-4.66,2.17-10.08,3.25-16.25,3.25s-11.65-1.09-16.31-3.25c-4.66-2.17-8.3-5.25-10.88-9.25-2.59-4-3.89-8.74-3.89-14.22v-46.14h19.55v44.45c0,2.23.49,4.22,1.48,5.96s2.35,3.11,4.1,4.1,3.74,1.48,5.96,1.48,4.24-.49,5.98-1.48,3.09-2.35,4.08-4.1,1.48-3.74,1.48-5.96v-44.45h0Z"
      fill="#fff"
    />
    <path
      d="m425.93,111.44V39.41h19.55v56.27h29.12v15.76h-48.67Z"
      fill="#fff"
    />
    <path
      d="m549.44,75.43c0,8.02-1.56,14.78-4.68,20.28-3.12,5.5-7.33,9.66-12.62,12.49-5.3,2.82-11.21,4.24-17.72,4.24s-12.49-1.42-17.78-4.27c-5.29-2.85-9.49-7.02-12.59-12.52-3.11-5.5-4.66-12.23-4.66-20.2s1.55-14.78,4.66-20.28c3.1-5.5,7.3-9.66,12.59-12.49s11.21-4.24,17.78-4.24,12.43,1.42,17.72,4.24,9.51,6.99,12.62,12.49c3.12,5.5,4.68,12.26,4.68,20.28h0Zm-20.12,0c0-4.32-.56-7.95-1.7-10.92-1.14-2.97-2.82-5.22-5.03-6.75-2.22-1.53-4.94-2.3-8.18-2.3s-5.96.77-8.18,2.3-3.9,3.79-5.03,6.75c-1.14,2.97-1.7,6.61-1.7,10.92s.56,7.95,1.7,10.92c1.14,2.97,2.82,5.22,5.03,6.75s4.94,2.3,8.18,2.3,5.96-.77,8.18-2.3,3.9-3.79,5.03-6.75c1.14-2.97,1.7-6.61,1.7-10.92Z"
      fill="#fff"
    />
    <path
      d="m625.68,66.42h-19.84c-.14-1.64-.51-3.13-1.1-4.47-.6-1.34-1.42-2.49-2.46-3.47s-2.3-1.72-3.78-2.25-3.15-.79-5.03-.79c-3.28,0-6.05.8-8.32,2.39-2.26,1.59-3.97,3.88-5.13,6.85-1.16,2.98-1.74,6.55-1.74,10.72,0,4.41.59,8.09,1.78,11.06,1.18,2.97,2.9,5.19,5.15,6.69s4.96,2.23,8.13,2.23c1.8,0,3.42-.23,4.86-.68s2.67-1.12,3.73-1.99c1.05-.87,1.91-1.91,2.59-3.14.67-1.23,1.12-2.62,1.36-4.17l19.84.14c-.24,3.04-1.09,6.15-2.57,9.3s-3.57,6.06-6.28,8.72c-2.71,2.66-6.05,4.8-10.04,6.42s-8.62,2.43-13.89,2.43c-6.61,0-12.54-1.42-17.78-4.26-5.24-2.83-9.38-7.01-12.41-12.52-3.04-5.51-4.55-12.25-4.55-20.23s1.55-14.78,4.65-20.28,7.27-9.66,12.52-12.49,11.11-4.24,17.59-4.24c4.54,0,8.73.62,12.55,1.86s7.17,3.05,10.06,5.43,5.2,5.3,6.96,8.78c1.76,3.47,2.82,7.44,3.2,11.92l-.03.02Z"
      fill="#fff"
    />
  </g>
</svg>